<svg width="24" height="18" viewBox="0 0 24 18" fill="none" xmlns="http://www.w3.org/2000/svg">
<path d="M21.0685 0.853516H2.93155C1.31516 0.853516 0 2.16868 0 3.78506V14.2152C0 15.8316 1.31516 17.1468 2.93155 17.1468H21.0685C22.6848 17.1468 24 15.8316 24 14.2152V3.78538C24.0003 2.16868 22.6852 0.853516 21.0685 0.853516ZM19.636 2.76602L12 7.68561L4.36401 2.76602H19.636ZM21.0685 15.2346H2.93155C2.36959 15.2346 1.9125 14.7772 1.9125 14.2155V3.83957L11.41 9.94683C11.4227 9.9548 11.4364 9.96022 11.4495 9.96755C11.4632 9.9752 11.4772 9.98253 11.4913 9.98954C11.5649 10.0275 11.6408 10.0581 11.7182 10.0782C11.7262 10.0804 11.7342 10.0813 11.7421 10.0833C11.8272 10.1033 11.9133 10.1158 11.9994 10.1158C11.9997 10.1158 12 10.1158 12 10.1158C12.0006 10.1158 12.001 10.1158 12.0013 10.1158C12.0873 10.1158 12.1734 10.1037 12.2585 10.0833C12.2665 10.0813 12.2744 10.0804 12.2824 10.0782C12.3599 10.0581 12.4354 10.0275 12.5094 9.98954C12.5234 9.98253 12.5374 9.9752 12.5511 9.96755C12.5642 9.96022 12.5779 9.9548 12.5906 9.94683L22.0881 3.83957V14.2152C22.0878 14.7772 21.6304 15.2346 21.0685 15.2346Z" fill="url(#paint0_linear_378_138)"/>
<defs>
<linearGradient id="paint0_linear_378_138" x1="12" y1="0.853516" x2="12" y2="17.1468" gradientUnits="userSpaceOnUse">
<stop stop-color="#B6F829"/>
<stop offset="1" stop-color="#67DD0A"/>
</linearGradient>
</defs>
</svg>
