<svg width="230" height="72" viewBox="0 0 230 72" fill="none" xmlns="http://www.w3.org/2000/svg">
<path d="M51.76 59H40.384L42.184 39.344C42.952 31.232 43.864 24.176 44.92 18.176L32.464 53.744H21.304L17.992 18.32C17.848 22.208 17.56 25.832 17.128 29.192C16.744 32.552 16.192 36.08 15.472 39.776L12.016 59H0.640015L11.368 9.104H25.552L28.216 43.736L39.88 9.104H55L51.76 59Z" fill="#141414"/>
<path d="M80.5881 19.544C86.1081 19.544 91.3161 20.888 96.2121 23.576L92.6841 48.056C92.5881 48.92 92.5401 49.472 92.5401 49.712C92.5401 50.48 92.6841 51.104 92.9721 51.584C93.2601 52.016 93.7881 52.376 94.5561 52.664L91.3161 60.008C89.1081 59.816 87.2121 59.216 85.6281 58.208C84.0441 57.152 82.9881 55.64 82.4601 53.672C79.3881 58.04 75.5961 60.224 71.0841 60.224C67.1001 60.224 64.0281 58.88 61.8681 56.192C59.7561 53.456 58.7001 49.736 58.7001 45.032C58.7001 41 59.4441 37.04 60.9321 33.152C62.4201 29.264 64.7961 26.024 68.0601 23.432C71.3721 20.84 75.5481 19.544 80.5881 19.544ZM80.3001 27.608C77.9961 27.608 76.0761 28.496 74.5401 30.272C73.0521 32.048 71.9721 34.256 71.3001 36.896C70.6281 39.536 70.2921 42.224 70.2921 44.96C70.2921 47.504 70.6521 49.304 71.3721 50.36C72.1401 51.368 73.2201 51.872 74.6121 51.872C77.1561 51.872 79.5801 50.096 81.8841 46.544L84.5481 28.328C83.1561 27.848 81.7401 27.608 80.3001 27.608Z" fill="#141414"/>
<path d="M116.247 20.768L110.919 59H99.7593L105.087 20.768H116.247ZM111.855 13.568C110.079 13.568 108.639 13.04 107.535 11.984C106.431 10.88 105.879 9.48799 105.879 7.808C105.879 5.744 106.575 4.04 107.967 2.69599C109.407 1.35199 111.183 0.679993 113.295 0.679993C115.071 0.679993 116.511 1.20799 117.615 2.26399C118.719 3.31999 119.271 4.688 119.271 6.368C119.271 8.432 118.551 10.16 117.111 11.552C115.719 12.896 113.967 13.568 111.855 13.568Z" fill="#141414"/>
<path d="M141.76 19.544C147.28 19.544 152.488 20.888 157.384 23.576L153.856 48.056C153.76 48.92 153.712 49.472 153.712 49.712C153.712 50.48 153.856 51.104 154.144 51.584C154.432 52.016 154.96 52.376 155.728 52.664L152.488 60.008C150.28 59.816 148.384 59.216 146.8 58.208C145.216 57.152 144.16 55.64 143.632 53.672C140.56 58.04 136.768 60.224 132.256 60.224C128.272 60.224 125.2 58.88 123.04 56.192C120.928 53.456 119.872 49.736 119.872 45.032C119.872 41 120.616 37.04 122.104 33.152C123.592 29.264 125.968 26.024 129.232 23.432C132.544 20.84 136.72 19.544 141.76 19.544ZM141.472 27.608C139.168 27.608 137.248 28.496 135.712 30.272C134.224 32.048 133.144 34.256 132.472 36.896C131.8 39.536 131.464 42.224 131.464 44.96C131.464 47.504 131.824 49.304 132.544 50.36C133.312 51.368 134.392 51.872 135.784 51.872C138.328 51.872 140.752 50.096 143.056 46.544L145.72 28.328C144.328 27.848 142.912 27.608 141.472 27.608Z" fill="#141414"/>
<path d="M191.86 51.512C191.284 55.496 190.108 58.784 188.332 61.376C186.604 63.968 184.492 65.984 181.996 67.424C179.548 68.912 176.668 70.184 173.356 71.24L171.268 62.816C173.428 62 175.108 61.04 176.308 59.936C177.556 58.88 178.444 57.656 178.972 56.264C179.548 54.824 179.98 53.024 180.268 50.864L186.172 9.104H197.764L191.86 51.512Z" fill="#141414"/>
<path d="M225.307 19.688C226.555 19.688 227.827 19.88 229.123 20.264L225.883 31.208C224.539 30.872 223.483 30.704 222.715 30.704C220.507 30.704 218.659 31.616 217.171 33.44C215.731 35.264 214.435 37.88 213.283 41.288L210.763 59H199.603L204.931 20.768H214.651L214.507 27.896C215.803 25.256 217.387 23.24 219.259 21.848C221.179 20.408 223.195 19.688 225.307 19.688Z" fill="#141414"/>
</svg>
