<svg width="24" height="24" viewBox="0 0 24 24" fill="none" xmlns="http://www.w3.org/2000/svg">
<path fill-rule="evenodd" clip-rule="evenodd" d="M3.09127 9.32509C5.54032 14.661 9.89838 18.9033 15.316 21.202L15.333 21.2092L16.3798 21.6759C17.7125 22.2701 19.2789 21.8481 20.1334 20.6648L21.8796 18.2467C21.9862 18.0989 21.9588 17.8935 21.817 17.7792L18.7686 15.3184C18.6171 15.196 18.3943 15.2245 18.2782 15.3811L17.0919 16.983C16.8037 17.372 16.2833 17.5072 15.8425 17.3075C11.7915 15.4732 8.53618 12.216 6.70289 8.16267C6.50337 7.72152 6.63846 7.20086 7.02728 6.91256L8.62823 5.72543C8.78467 5.60944 8.81314 5.38647 8.69089 5.23483L6.23125 2.18422C6.11693 2.04242 5.91174 2.01489 5.76412 2.12152L3.33428 3.87667C2.14383 4.73657 1.72459 6.31715 2.33224 7.65453L3.09045 9.32331C3.09072 9.32391 3.091 9.3245 3.09127 9.32509ZM14.5049 23.0917C8.61832 20.5914 3.88364 15.9806 1.22256 10.1814L1.22096 10.178L0.461157 8.50566C-0.55159 6.2767 0.147138 3.64237 2.13122 2.20921L4.56106 0.454062C5.59439 -0.292345 7.03072 -0.0995639 7.83094 0.892917L10.2905 3.94355C11.1464 5.00496 10.947 6.56574 9.85206 7.37772L8.93468 8.05798C10.4843 11.0666 12.9403 13.524 15.947 15.0745L16.627 14.1566C17.4384 13.0609 18.9983 12.8615 20.0591 13.7177L23.1077 16.1785C24.0998 16.9794 24.2922 18.4171 23.5456 19.451L21.7995 21.8693C20.3753 23.8415 17.7644 24.5447 15.5432 23.5545L14.5049 23.0917Z" fill="url(#paint0_linear_378_117)"/>
<defs>
<linearGradient id="paint0_linear_378_117" x1="12" y1="0" x2="12" y2="24" gradientUnits="userSpaceOnUse">
<stop stop-color="#B6F829"/>
<stop offset="1" stop-color="#67DD0A"/>
</linearGradient>
</defs>
</svg>
