<svg width="24" height="24" viewBox="0 0 24 24" fill="none" xmlns="http://www.w3.org/2000/svg">
<path d="M17.7594 13.7909C17.7126 13.7685 15.9629 12.9069 15.652 12.795C15.5251 12.7494 15.3891 12.7049 15.2445 12.7049C15.0082 12.7049 14.8098 12.8227 14.6552 13.0539C14.4804 13.3137 13.9513 13.9322 13.7878 14.117C13.7665 14.1413 13.7373 14.1705 13.7199 14.1705C13.7042 14.1705 13.4334 14.059 13.3515 14.0234C11.4745 13.2081 10.0499 11.2475 9.85455 10.9169C9.82665 10.8693 9.82548 10.8477 9.82525 10.8477C9.8321 10.8226 9.89522 10.7593 9.92779 10.7266C10.0231 10.6324 10.1263 10.5081 10.2262 10.3878C10.2735 10.3309 10.3209 10.2738 10.3674 10.2201C10.5124 10.0515 10.5769 9.92054 10.6517 9.76891L10.6909 9.69013C10.8735 9.32724 10.7175 9.02101 10.6671 8.92213C10.6257 8.83937 9.88696 7.05636 9.80841 6.86904C9.61953 6.41701 9.36995 6.20654 9.02312 6.20654C8.99093 6.20654 9.02312 6.20654 8.88815 6.21223C8.72382 6.21917 7.82888 6.33698 7.43319 6.58641C7.01358 6.85096 6.30371 7.69423 6.30371 9.17724C6.30371 10.512 7.15072 11.7722 7.51439 12.2515C7.52343 12.2636 7.54002 12.2881 7.5641 12.3233C8.9568 14.3573 10.693 15.8646 12.453 16.5677C14.1474 17.2445 14.9498 17.3227 15.406 17.3227C15.406 17.3227 15.406 17.3227 15.406 17.3227C15.5977 17.3227 15.7511 17.3077 15.8865 17.2944L15.9724 17.2862C16.5577 17.2343 17.8441 16.5678 18.1367 15.7546C18.3671 15.1142 18.4279 14.4145 18.2746 14.1605C18.1695 13.9878 17.9885 13.901 17.7594 13.7909Z" fill="url(#paint0_linear_378_62)"/>
<path d="M12.2138 0C5.71381 0 0.425702 5.24836 0.425702 11.6995C0.425702 13.786 0.984092 15.8284 2.04188 17.6159L0.0172338 23.5883C-0.0204805 23.6996 0.00757147 23.8227 0.0899352 23.9066C0.14939 23.9673 0.230039 24 0.312403 24C0.343961 24 0.375754 23.9952 0.406767 23.9854L6.6343 22.0064C8.33846 22.917 10.2645 23.3976 12.2138 23.3976C18.7132 23.3977 24.0007 18.1498 24.0007 11.6995C24.0007 5.24836 18.7132 0 12.2138 0ZM12.2138 20.9606C10.3796 20.9606 8.60301 20.4309 7.07589 19.4289C7.02454 19.3951 6.96493 19.3778 6.90493 19.3778C6.87321 19.3778 6.84142 19.3826 6.81049 19.3925L3.69087 20.3841L4.69794 17.413C4.73051 17.3169 4.71422 17.2108 4.65422 17.1288C3.49131 15.5398 2.87659 13.6625 2.87659 11.6995C2.87659 6.59221 7.06521 2.43709 12.2137 2.43709C17.3615 2.43709 21.5497 6.59221 21.5497 11.6995C21.5498 16.8061 17.3617 20.9606 12.2138 20.9606Z" fill="url(#paint1_linear_378_62)"/>
<defs>
<linearGradient id="paint0_linear_378_62" x1="12.3314" y1="6.20654" x2="12.3314" y2="17.3228" gradientUnits="userSpaceOnUse">
<stop stop-color="#B6F829"/>
<stop offset="1" stop-color="#67DD0A"/>
</linearGradient>
<linearGradient id="paint1_linear_378_62" x1="12.0007" y1="0" x2="12.0007" y2="24" gradientUnits="userSpaceOnUse">
<stop stop-color="#B6F829"/>
<stop offset="1" stop-color="#67DD0A"/>
</linearGradient>
</defs>
</svg>
