<svg width="24" height="24" viewBox="0 0 24 24" fill="none" xmlns="http://www.w3.org/2000/svg">
<path d="M12 0C5.37257 0 0 5.37257 0 12C0 18.6274 5.37257 24 12 24C18.6274 24 24 18.6274 24 12C24 5.37257 18.6274 0 12 0ZM1.53801 12.75H4.11149C4.16875 13.9952 4.35693 15.1345 4.64919 16.1576H2.36238C1.90447 15.1004 1.62358 13.9522 1.53801 12.75ZM15.7019 11.25C15.6455 10.0445 15.5025 8.90258 15.3091 7.84242H17.7674C18.0947 8.84865 18.3193 9.98331 18.387 11.25H15.7019ZM10.1084 16.1576C9.89672 14.9888 9.79283 13.848 9.77358 12.75H14.2265C14.2073 13.848 14.1033 14.9888 13.8916 16.1576H10.1084ZM13.5648 17.6576C13.2131 19.0077 12.7041 20.3838 11.9999 21.763C11.2957 20.3838 10.7868 19.0077 10.4352 17.6576H13.5648ZM9.79401 11.25C9.85342 10.0376 10.0067 8.89509 10.2103 7.84242H13.7897C13.9933 8.89509 14.1466 10.0376 14.206 11.25H9.79401ZM10.5474 6.34247C11.0161 4.51264 11.5952 3.06891 11.9999 2.18003C12.4046 3.06891 12.9838 4.51264 13.4526 6.34247H10.5474ZM14.9912 6.34247C14.5127 4.35943 13.8982 2.76647 13.4421 1.73691C14.0089 2.14026 15.8922 3.6311 17.1768 6.34247H14.9912ZM10.5577 1.73682C10.1016 2.76637 9.48725 4.35938 9.00877 6.34247H6.82291C8.10769 3.63086 9.99105 2.14002 10.5577 1.73682ZM8.69094 7.84247C8.49747 8.90263 8.3546 10.0445 8.29817 11.2501H5.61272C5.68046 9.98341 5.90503 8.8487 6.23231 7.84247H8.69094ZM4.11311 11.25H1.53801C1.62358 10.0478 1.90442 8.89979 2.36233 7.84242H4.65958C4.36516 8.8654 4.17326 10.0039 4.11311 11.25ZM5.61193 12.75H8.2776C8.29465 13.8498 8.38717 14.9892 8.58328 16.1576H6.23309C5.90307 15.1488 5.67771 14.0138 5.61193 12.75ZM8.89391 17.6576C9.26185 19.185 9.80836 20.746 10.5957 22.3133C10.0644 21.9329 8.13306 20.4138 6.82359 17.6576H8.89391ZM13.4025 22.3167C14.1908 20.7482 14.7378 19.1861 15.1061 17.6576H17.1914C15.8858 20.4278 13.9463 21.9344 13.4025 22.3167ZM15.4168 16.1576C15.6129 14.9892 15.7055 13.8498 15.7224 12.75H18.3886C18.3241 14.0161 18.1024 15.1508 17.7772 16.1576H15.4168ZM19.8882 12.75H22.462C22.3764 13.9522 22.0955 15.1003 21.6376 16.1576H19.3506C19.6428 15.1345 19.831 13.9952 19.8882 12.75ZM19.8866 11.25C19.8265 10.0038 19.6346 8.8654 19.3402 7.84242H21.6377C22.0957 8.89974 22.3765 10.0478 22.462 11.25H19.8866ZM20.8315 6.34247H18.8114C18.141 4.72741 17.2669 3.44983 16.4443 2.5007C18.2437 3.34609 19.7641 4.68225 20.8315 6.34247ZM7.5552 2.5009C6.73273 3.45002 5.85874 4.72756 5.18831 6.34247H3.16854C4.23576 4.68235 5.75608 3.34633 7.5552 2.5009ZM3.16859 17.6576H5.17611C5.83646 19.2562 6.6982 20.5295 7.51499 21.4797C5.7335 20.6332 4.22782 19.3052 3.16859 17.6576ZM16.4854 21.4795C17.3019 20.5294 18.1635 19.2561 18.8237 17.6576H20.8314C19.7723 19.3051 18.2667 20.633 16.4854 21.4795Z" fill="url(#paint0_linear_378_81)"/>
<defs>
<linearGradient id="paint0_linear_378_81" x1="12" y1="0" x2="12" y2="24" gradientUnits="userSpaceOnUse">
<stop stop-color="#B6F829"/>
<stop offset="1" stop-color="#67DD0A"/>
</linearGradient>
</defs>
</svg>
